<?xml version="1.0" encoding="utf-8"?>
<!-- Generator: Adobe Illustrator 23.1.1, SVG Export Plug-In . SVG Version: 6.00 Build 0)  -->
<svg version="1.1" id="Layer_1" xmlns="http://www.w3.org/2000/svg" xmlns:xlink="http://www.w3.org/1999/xlink" x="0px" y="0px"
	 viewBox="0 0 2497 592" style="enable-background:new 0 0 2497 592;" xml:space="preserve">
<style type="text/css">
	.st0{fill:#FFFFFF;}
	.st1{fill:#231F20;}
	.st2{fill:#80C242;}
</style>
<path class="st0" d="M222.5,475c-6.3,0-12-2.3-17-7s-7.5-10.8-7.5-18.5v-195h-21.5c-7,0-12.7-2-17-6s-6.5-9-6.5-15
	c0-6.7,2.2-12,6.5-16s10-6,17-6H198V203c0-24,4.7-44.8,14-62.5c9.7-17.7,23-31.3,40-41c17-10,36.7-15,59-15c7.3,0,13.3,2.2,18,6.5
	c5,4.3,7.5,9.8,7.5,16.5c0,6.3-2.5,11.8-7.5,16.5c-4.7,4.3-10.7,6.5-18,6.5c-18.7,0-33.7,6.2-45,18.5c-11.3,12.3-17,28.7-17,49v13.5
	h51c7,0,12.7,2,17,6s6.5,9.3,6.5,16c0,6-2.2,11-6.5,15s-10,6-17,6h-51v195c0,7.7-2.3,13.8-7,18.5S230.8,475,222.5,475z"/>
<g>
	<g>
		<path class="st1" d="M75.8,215v11.5c16.2-20.5,37.8-30.8,64.7-30.8c14.6,0,28.3,3.7,41.3,11.1c12.9,7.4,21.7,16.7,26.3,27.7
			c3.8,9.2,5.7,21.2,5.7,36v76.9c0,11.6,0.1,18.5,0.4,20.6c1.3,9.2,5,13.8,10.9,13.8c2.4,0,5.6-0.3,9.5-1c3.9-0.7,6.7-1,8.3-1
			c3.5,0,6.5,1.2,9.1,3.6c2.6,2.4,3.8,5.4,3.8,8.9c0,4-1.6,7.4-4.9,10.1c-3.2,2.7-7.1,4-11.7,4c-3.8,0-10-0.5-18.6-1.6
			c-8.6-1.1-16.7-1.6-24.3-1.6c-7,0-12.8,0.3-17.4,0.8c-13.5,1.6-20.6,2.4-21.4,2.4c-10.8,0-16.2-4.7-16.2-14.2
			c0-8.4,4.7-12.5,14-12.5c2.2,0,4.7,0.3,7.4,0.8c5.2,1.1,8.5,1.6,9.9,1.6c6.6,0,10.2-7.4,10.7-22.3v-20.6v-24.7v-30.8
			c0-14.3-0.7-24.1-2-29.5c-2.4-10.2-7.7-18.2-15.7-23.9c-8.9-6.2-18.9-9.3-30.2-9.3c-21.5,0-37,7.7-46.4,23.1
			c-6.4,10.5-9.7,28.5-9.7,53.8v53.8c0,11.9,0.8,20,2.4,24.3c1.6,4.3,4.6,6.5,8.9,6.5c2.2,0,5.1-0.5,8.9-1.4
			c3.8-0.9,6.9-1.4,9.3-1.4c8.4,0,12.5,4.5,12.5,13.6c0,8.8-5.4,13.2-16.2,13.2c-2.2,0-9.2-0.8-21-2.4c-5.9-0.8-12.5-1.2-19.8-1.2
			c-5.7,0-13.2,0.5-22.7,1.6c-11.9,1.3-18.6,2-20.2,2c-11.3,0-17-4.6-17-13.8c0-8.6,4.4-12.9,13.2-12.9c1.4,0,3.9,0.4,7.6,1.2
			c3.7,0.8,7.3,1.2,10.9,1.2c8.2,0,12.5-7.8,12.8-23.5v-44.9v-49v-14.2c-0.6-9.2-1.7-15.4-3.5-18.8c-1.8-3.4-4.9-5.1-9.3-5.1
			c-1.9,0-4.7,0.3-8.4,1c-3.7,0.7-6.5,1-8.4,1c-9.9,0-14.8-4.3-14.8-12.9c0-8.9,6.1-13.4,18.2-13.4c1.6,0,3,0.1,4,0.4l15,1.6
			c4.3,0,8.1-0.3,11.3-1c7-0.7,10.7-1,10.9-1C71.9,202.6,75.8,206.7,75.8,215"/>
		<path class="st1" d="M445.6,410.2c-22.1,0-35.7-9.6-40.9-28.7c-13.8,20.2-35.3,30.3-64.7,30.3c-21.9,0-39.3-5.4-52.4-16.2
			c-13.1-10.8-19.6-25.2-19.6-43.3c0-22.4,9.6-38.8,28.7-49.4c7.3-4,13.6-6.7,18.8-7.9c5.3-1.2,15.8-2.8,31.8-4.7
			c22.7-2.4,37.4-5.8,44.3-10.1c6.9-4.3,10.3-12.3,10.3-23.9c0-11.1-3.8-19.8-11.5-26.1c-7.7-6.3-18.4-9.5-32.2-9.5
			c-12.1,0-23.5,3.4-34,10.1c-4,2.7-6.1,5.5-6.1,8.5c0,1.1,1.2,2.4,3.6,4c3.8,2.7,5.7,7.3,5.7,13.8c0,5.4-2,9.9-5.9,13.4
			c-3.9,3.5-8.8,5.3-14.8,5.3c-7,0-12.9-2.4-17.6-7.3c-4.7-4.9-7.1-10.8-7.1-17.8c0-15.1,7.5-28,22.5-38.8
			c15-10.8,33.1-16.2,54.4-16.2c49.1,0,73.6,23.6,73.6,70.7V348c0,12.9,0.3,20.6,0.8,23c1.6,9.4,6.2,14.1,13.8,14.1
			c9.4,0,14.2-8.6,14.2-25.7v-19.7c0-8.6,4.1-12.9,12.3-12.9c8.8,0,13.1,6.5,13.1,19.4v2v23.1C486.3,397.2,472.6,410.2,445.6,410.2
			 M400.7,329.7v-28.7c-5.9,5.4-12.2,9.2-18.7,11.3c-6.6,2.2-18.3,4-35.3,5.7c-30.6,3-45.9,14.3-45.9,34c0,10.3,3.7,18.3,11.1,24.3
			c7.4,5.9,17.5,8.9,30.1,8.9c18.1,0,32.3-4.9,42.7-14.8C395.1,360.5,400.4,346.9,400.7,329.7"/>
		<path class="st1" d="M612.3,349.1v-25.9c0.3-11.1,5.1-16.6,14.6-16.6c9.4,0,14.2,6.2,14.2,18.6c0,29.4-3.8,49.9-11.3,61.5
			c-10.2,15.6-26.9,23.5-50.2,23.5c-21.4,0-36.7-6.9-45.8-20.6c-6.7-10-10-27-10-51v-97.1c0-5.7-2.6-8.5-7.9-8.5h-13.2
			c-4.4,0-8.1-1.4-11-4.2c-2.9-2.8-4.3-6.3-4.3-10.3c0-3.8,1.4-7.1,4.2-10.1c2.8-3,6-4.5,9.5-4.5h15.8c4.6,0,6.9-2.6,6.9-7.7v-41.7
			c0-10.3,5.3-15.4,15.8-15.4c9.7,0,14.6,5.1,14.6,15.4v43.3c0,4,2.4,6.1,7.3,6.1h44.1c10.3,0,15.4,4.7,15.4,14.2
			c0,10-5.5,15-16.6,15h-44.5c-3.8,0-5.7,2.8-5.7,8.5V341c0,28.3,9.4,42.5,28.3,42.5C601.5,383.5,611.5,372,612.3,349.1"/>
		<path class="st1" d="M827.2,394.8v-12.5c-14.3,19.7-35.5,29.5-63.5,29.5c-31.8,0-54-9.8-66.4-29.5c-5.4-8.6-8.4-18.7-8.9-30.3
			c-0.3-5.7-0.4-17.5-0.4-35.6v-33.6c0-37-3.9-55.4-11.8-55.4c-1.6,0-4.2,0.2-7.8,0.6c-3.5,0.4-6.3,0.6-8.2,0.6
			c-9.5,0-14.3-4.4-14.3-13.1c0-8.5,5.8-12.7,17.4-12.7c2.7,0,6.7,0.3,11.9,1c5.3,0.7,9.2,1,11.9,1c2.4,0,6.6-0.4,12.5-1.2
			c4-0.5,6.3-0.8,6.9-0.8c8.4,0,12.5,5.1,12.5,15.4v8.5v26.3l-1.2,29.9V309c0,23.5,1.9,40.3,5.7,50.6c6.2,17,21,25.5,44.5,25.5
			c11.6,0,21.8-2.6,30.8-7.9c8.9-5.3,15.1-12.2,18.6-20.8c4.3-10.5,6.5-30.5,6.5-59.9v-22.3v-26.3c-1.3-12.9-4.9-19.4-10.5-19.4
			h-7.3h-4.9c-9.4,0-14.2-4.1-14.2-12.2c0-9.2,5.3-13.7,15.8-13.7c2.4,0,6.1,0.3,11.1,0.8c5,0.5,8.7,0.8,11.1,0.8
			c2.2,0,5.4-0.3,9.7-0.8c4.3-0.5,7.5-0.8,9.7-0.8c8.1,0,12.1,4.3,12.1,13c0,3.8-0.3,6.8-0.8,8.9c-1.4,10.3-2,25.4-2,45.4v62.5
			c0,16.5,0.1,25.7,0.4,27.6c1.3,14.3,5.1,21.5,11.3,21.5c1.9,0,4.6-0.3,8.1-1c3.5-0.7,6.2-1,8.1-1c9.2,0,13.8,4.5,13.8,13.4
			c0,9.2-5.7,13.8-17,13.8c-2.4,0-5.9-0.3-10.5-0.8c-6.7-0.8-10.9-1.2-12.5-1.2c-0.8,0-3.6,0.3-8.5,0.8c-3.2,0.8-6.1,1.2-8.5,1.2
			C830.9,406.5,827.2,402.6,827.2,394.8"/>
		<path class="st1" d="M973.2,214.2v11.1c14-19.7,32.8-29.5,56.2-29.5c18.9,0,34.2,5.3,45.9,16c11.7,10.7,17.6,24.3,17.6,41.1
			c0,11.9-3,21.5-8.9,28.9c-5.9,7.4-13.8,11.1-23.5,11.1c-6.2,0-11.5-1.9-15.8-5.7c-4.3-3.8-6.5-8.4-6.5-13.8
			c0-4.3,1.6-8.2,4.9-11.5c3.2-3.4,7-5.1,11.3-5.1c0.8,0,2.6,0.4,5.3,1.2c1.6-3.2,2.4-6.2,2.4-8.9c0-7.8-3.4-14.4-10.3-19.8
			c-6.9-5.4-15.4-8.1-25.7-8.1c-21,0-35.1,9.4-42.1,28.3c-4.3,11.6-6.5,29.1-6.5,52.6v26.7c0,18.1,0.1,28.2,0.4,30.3
			c1.3,15.4,5.5,23.1,12.5,23.1c3.5,0,7.1-0.5,10.9-1.4c3-0.7,5.5-1,7.7-1c8.6,0,12.9,4.3,12.9,12.8c0,9.3-5.5,14-16.5,14h-1.6
			c-4,0-10.2-0.5-18.4-1.4c-8.2-0.9-14.3-1.4-18.3-1.4c-10.8,0-19.2,0.3-25.4,0.8l-22.6,2c-11,0-16.5-4.7-16.5-14.2
			c0-8.4,5.2-12.5,15.5-12.5c2.7,0,4.8,0.1,6.1,0.4l6.1,1.2c2.7,0.5,4.6,0.8,5.7,0.8c6.8,0,10.5-6.2,11-18.6V343l-1.2-91.9
			c-0.8-15.9-4.9-23.9-12.1-23.9c-2.2,0-5.1,0.4-8.9,1.2c-3.8,0.8-6.7,1.2-8.9,1.2c-8.9,0-13.4-4.3-13.4-12.9
			c0-9.4,5.8-14.2,17.4-14.2c2.7,0,6.7,0.3,12.1,1c5.4,0.7,9.4,1,12.1,1c2.2,0,5.7-0.3,10.5-1c2.2-0.7,4.7-1,7.7-1
			C969.7,202.6,973.2,206.5,973.2,214.2"/>
		<path class="st1" d="M1284.8,410.2c-22.1,0-35.8-9.6-40.9-28.7c-13.8,20.2-35.3,30.3-64.7,30.3c-21.8,0-39.3-5.4-52.4-16.2
			c-13.1-10.8-19.6-25.2-19.6-43.3c0-22.4,9.6-38.8,28.7-49.4c7.3-4,13.6-6.7,18.8-7.9c5.3-1.2,15.8-2.8,31.8-4.7
			c22.7-2.4,37.4-5.8,44.3-10.1c6.9-4.3,10.3-12.3,10.3-23.9c0-11.1-3.8-19.8-11.5-26.1c-7.7-6.3-18.4-9.5-32.2-9.5
			c-12.1,0-23.5,3.4-34,10.1c-4,2.7-6.1,5.5-6.1,8.5c0,1.1,1.2,2.4,3.6,4c3.8,2.7,5.7,7.3,5.7,13.8c0,5.4-2,9.9-5.9,13.4
			c-3.9,3.5-8.8,5.3-14.8,5.3c-7,0-12.9-2.4-17.6-7.3c-4.7-4.9-7.1-10.8-7.1-17.8c0-15.1,7.5-28,22.5-38.8
			c15-10.8,33.1-16.2,54.4-16.2c49.1,0,73.6,23.6,73.6,70.7V348c0,12.9,0.3,20.6,0.8,23c1.6,9.4,6.2,14.1,13.8,14.1
			c9.4,0,14.2-8.6,14.2-25.7v-19.7c0-8.6,4.1-12.9,12.3-12.9c8.8,0,13.1,6.5,13.1,19.4v2v23.1
			C1325.5,397.2,1311.8,410.2,1284.8,410.2 M1239.9,329.7v-28.7c-5.9,5.4-12.2,9.2-18.7,11.3c-6.6,2.2-18.3,4-35.3,5.7
			c-30.6,3-45.9,14.3-45.9,34c0,10.3,3.7,18.3,11.1,24.3c7.4,5.9,17.5,8.9,30.1,8.9c18.1,0,32.3-4.9,42.7-14.8
			C1234.3,360.5,1239.6,346.9,1239.9,329.7"/>
		<path class="st1" d="M1402.5,236v125.6c0.3,13.7,4,20.6,11,20.6c1.6,0,5-0.7,10.2-2c3.3-0.5,5.5-0.8,6.5-0.8
			c9,0,13.5,4.6,13.5,13.8c0,8.9-5.5,13.4-16.5,13.4c-4.3,0-11.2-0.5-20.6-1.6c-9.4-1.1-16.7-1.6-21.8-1.6c-4.3,0-10.8,0.5-19.4,1.6
			c-8.6,1.1-14.9,1.6-18.9,1.6h-2c-11.3,0-16.9-4.9-16.9-14.6c0-8.4,4.6-12.5,13.9-12.5h2.9c1.6,0.4,2.9,0.6,3.7,0.6
			c6.8,1.5,10.7,2.3,11.8,2.3c4.9,0,8-2.1,9.2-6.3c1.2-4.2,2-15.1,2.2-32.7l0.4-28.4v-62.9v-72.3c-0.3-8.1-0.7-13.5-1.2-16.2
			c-1.9-6.2-5.7-9.3-11.3-9.3c-0.8,0-4.3,0.5-10.5,1.6c-3,0.5-5.4,0.8-7.3,0.8c-9.2,0-13.8-4.3-13.8-12.9c0-8.9,5.4-13.4,16.2-13.4
			c3,0,5.5,0.1,7.7,0.4l9.7,1.2c4.3,0.5,8,0.8,10.9,0.8c2.7,0,6.7-0.4,12.1-1.2c5.4-0.8,9.4-1.2,12.1-1.2c6.2,0,9.3,3.9,9.3,11.7
			c0,2.7-0.1,4.7-0.4,6.1C1403.5,168.7,1402.5,198.1,1402.5,236"/>
	</g>
	<path class="st2" d="M2147.2,294.2c0,160.6-258.3,290.7-418.8,290.7s-290.7-130.2-290.7-290.7S1567.8,3.5,1728.3,3.5
		S2147.2,133.6,2147.2,294.2"/>
	<g>
		<path class="st0" d="M1687.9,336c0-27.4-0.8-31.4-15.1-34.2c-2.8-0.4-8.7-0.8-11.9-0.8c-1.2,0-2.8-1.6-2.8-2.8
			c0-2.4,1.6-2.8,5.6-2.8c15.9,0,39.3,0.8,41.3,0.8c1.6,0,23.4-0.8,34.2-0.8c4,0,5.6,0.4,5.6,2.8c0,1.2-1.6,2.8-2.8,2.8
			c-2.4,0-4.8,0-8.7,0.8c-9.5,1.6-12.3,6.8-13.1,18.7c-0.4,10.7-0.4,20.7-0.4,35v37.7c0,15.5-0.4,15.9-4.8,18.3
			c-22.2,11.5-54,15.1-74.3,15.1c-26.6,0-76.3-3.2-115.2-36.1c-21.4-17.9-41.7-54-41.7-96.1c0-54,27.4-92.1,58.4-110.8
			c31.4-19.1,66.3-21.4,92.9-21.4c22.2,0,46.9,4,53.6,5.6c7.1,1.6,19.5,3.6,28.2,3.6c3.6,0,4.4,1.6,4.4,3.2c0,4.8-2,13.9-2,47.7
			c0,5.6-1.6,7.1-4,7.1c-2,0-2.4-2-2.4-5.2c-0.4-4.4-2.4-14.3-7.9-22.2c-8.7-12.7-35.3-26.2-80.6-26.2c-21.1,0-46.5,1.6-73.1,21.8
			c-20.3,15.5-34.6,45.7-34.6,85c0,47.7,24.6,81.8,36.9,93.3c27.8,25.8,57.2,35.3,89.4,35.3c12.3,0,28.6-1.2,37.7-6.4
			c4.4-2.4,7.1-4,7.1-10.3V336z"/>
		<path class="st0" d="M1923.8,162c78.6,0,138.2,48.1,138.2,126.7c0,75.5-56,137.8-140.2,137.8c-95.7,0-136.6-71.9-136.6-132.6
			C1785.2,239.5,1827.3,162,1923.8,162 M1931.8,412.6c31.4,0,94.5-16.7,94.5-114.4c0-81-49.2-123.5-104.5-123.5
			c-58.4,0-100.5,36.5-100.5,110C1821.4,363.4,1868.6,412.6,1931.8,412.6"/>
	</g>
</g>
</svg>
